<svg xmlns="http://www.w3.org/2000/svg" version="1.1" viewBox="0 0 574 66">
  <path d="M.08 31.67 0 31.63c.38-.17.75-.26 1.13-.26.37 0 .72.03 1.05.1.32.06.63.09.9.09.2 0 .4-.03.6-.08-.42.35-.91.53-1.46.53-.6 0-1.32-.11-2.14-.34Zm28.55 29.04c.07-.45.27-.83.58-1.15.31-.3.67-.6 1.07-.88a10.28 10.28 0 0 0 2.93-3.34l.19-.3c.47-.78.89-1.67 1.24-2.67a2.76 2.76 0 0 0 1.28-.56c.3-.35.5-.88.63-1.58.08-.45.24-.73.5-.83.14-.07.44-.11.9-.11.32 0 .5-.11.56-.34.05-.12.07-.26.07-.41.28-1.3.65-2.58 1.13-3.83.3-.88.58-1.77.83-2.67a28.67 28.67 0 0 1 2.81-6.27 38.03 38.03 0 0 0 2.07-4.17c.13-.25.34-.46.64-.62.3-.17.47-.34.52-.53.06-.19.08-.42.08-.7 0-.27.03-.52.1-.75.06-.22.25-.41.58-.56a1.31 1.31 0 0 1-.38-.9c.05-.3.15-.58.3-.83l.19-.45a71.52 71.52 0 0 1 3.87-8.79c.07-.15.19-.31.34-.49.32-.42.49-.74.49-.94a.65.65 0 0 0-.15-.41c-.2-.33-.3-.63-.3-.9.02-.25.14-.6.37-1.05.2-.6.3-1 .3-1.2 0-.4-.15-.66-.45-.76-.65-.2-.98-.44-.98-.71v-.08c.13-.3.23-.49.3-.56a6 6 0 0 0 .3-1.97c0-.74.1-1.36.27-1.86V6.5c0-.18-.3-.34-.87-.49a9.22 9.22 0 0 1-1.76 3 12 12 0 0 0-1.62 2.49c-.25.62-.6 1.2-1.05 1.72a2.48 2.48 0 0 1-.26-1.12c0-.5.12-1.04.37-1.62 0-.05-.02-.08-.07-.1a.54.54 0 0 0-.11-.01l-.04.04a9 9 0 0 0-2.26 2.55c-.55.95-1.04 1.96-1.46 3.03a21.06 21.06 0 0 1-1.58 3.13l-1.01 1.54a25.91 25.91 0 0 0-3.16 5.53c-.88.02-1.77.03-2.67.03l-1.73-.03c-1.72 0-3.45.1-5.18.33 1.33.18 2.57.33 3.72.45-1.38.36-2.84.53-4.4.53-.62 0-1.26-.02-1.91-.07.67-2.94 1.7-5.69 3.08-8.27a4.28 4.28 0 0 0-1.17.92l-.1.2a13.16 13.16 0 0 1-1.29 2.49c-.05.02-.07.05-.07.07-.13.25-.19.45-.19.6-.07.33-.2.63-.36.9-.16.28-.45.5-.88.68-.15 0-.22.02-.22.06v.1l.03.6c0 .42-.34 1.02-1.01 1.8v-.34c0-.83.25-1.47.75-1.92.13-.12.21-.26.26-.41.2-.78.42-1.28.64-1.5.1-.08.21-.14.34-.17.12-.04.24-.1.34-.17l.26-.2c0-.04.1-.27.3-.67.25-.7.6-1.35 1.05-1.95l.2-.26a9.27 9.27 0 0 0 .82-5.56l-.3-.04c-.23 0-.4.09-.53.26-.12.18-.26.27-.41.27l-.26-.04c.04-.43.16-.86.33-1.3a4.1 4.1 0 0 0 .34-1.56c0-.42-.16-.87-.49-1.35L23 16.83a1.36 1.36 0 0 1-.6-.64.98.98 0 0 0-.26-.35c-.13-.12-.32-.17-.57-.17a.56.56 0 0 0-.4.15 1 1 0 0 0-.23.33l-.15.34c-.15.2-.23.42-.23.64-.07.4-.21.69-.41.87a6.03 6.03 0 0 0-1.41 1.4c-.21.37-.37.81-.47 1.34a7.18 7.18 0 0 1-.83 2.51 6 6 0 0 1-.67.83c-.56.5-1 1.22-1.36 2.14-.35.93-1.21 1.5-2.59 1.73-1.03.18-2.07.29-3.12.34-1.42.05-2.21.15-2.36.3-.08.05-.12.2-.12.45.58.13 1 .25 1.24.38.25.12.38.31.38.56l-.04.23a7.44 7.44 0 0 1-2.22.1 6.44 6.44 0 0 0-2.97.34c1.69.68 2.97 1.18 3.88 1.5-.25.1-.53.18-.83.23-.43.08-.75.18-.96.3-.21.13-.32.3-.32.53 0 .13.03.28.08.45.27 0 .54-.01.79-.04.57-.05 1.15-.07 1.72-.07l1.13.04c.95.07 1.9.35 2.86.82l-.38.98c-.75 1.78-1.4 3.6-1.95 5.48l-.19.72c-.2.65-.36 1.3-.49 1.95-.6.6-1 1.57-1.2 2.9a11 11 0 0 0-.3 2.32c0 .88.11 1.76.34 2.63.1.86.17 1.29.22 1.3l.15.02.08-.04c.32-.83.74-1.63 1.24-2.4.05 0 .1-.04.17-.12a9.16 9.16 0 0 0 .45-.62c.06-.1.1-.18.13-.2-.2 1.12-.38 2.25-.53 3.38a67.48 67.48 0 0 1-1.42 7.44v.03l.18.08c.05 0 .1-.01.12-.04a68.7 68.7 0 0 1 3.38-5c.05.16.22.27.52.34.48 0 .77-.13.87-.41a32.16 32.16 0 0 1 3.38-6.84c.85-1.27 1.53-3.14 2.03-5.6a26.02 26.02 0 0 1 2.03-5.4c.42-.9.82-1.8 1.2-2.7.1-.31.26-.52.49-.65.22-.12.58-.19 1.09-.19 2.15-.02 4.28-.16 6.38-.4.88-.1 1.94-.16 3.2-.16l.9-.04c.47 0 .83.08 1.07.25.24.16.35.35.35.58 0 .13-.03.28-.1.45-.23.5-.38 1-.44 1.52s-.19 1-.38 1.47c-.18.46-.6.87-1.22 1.22l-3.9 9.2-.04.15c-.1.2-.17.37-.2.51-.05.14-.06.24-.06.32a1 1 0 0 0 .07.37 13.2 13.2 0 0 0-.52 3.65l.03.83c0 1.22-.15 2.28-.47 3.17a7.04 7.04 0 0 0-.47 2.27c0 .5.1 1.03.3 1.58.05.08.1.11.15.11h.27c.07-.02.12-.06.15-.1Zm-9.2-25.2c0-.6.4-1.07 1.23-1.4l-.94 2.44c-.2-.37-.3-.72-.3-1.05Zm3.11-21.3c0-.2.14-.47.41-.8l.3-.37c.13.35.2.64.2.86l-.04.23c-.03.22-.28.37-.76.45a.89.89 0 0 1-.1-.38ZM59.46 50.87c-.98 0-2-.06-3.08-.19-.13 0-.2-.02-.23-.08l-2.03.2c-.62.04-1.25.07-1.87.07h-.64c-.83 0-1.64-.18-2.44-.53a32.27 32.27 0 0 0-2.17.13l-.01-.05h.03c.5-.15.97-.27 1.4-.34-.4-.08-.86-.11-1.36-.11l-.96-.08c-.31-.02-.6-.07-.84-.15a.8.8 0 0 1-.53-.41l-.04-.15c0-.23.33-.43.98-.6.23-.13.56-.2 1.02-.23.75-.07 1.17-.24 1.27-.49 0-.27-.16-.5-.49-.67-.65-.38-.97-.73-.97-1.06l.05-.33c.04-.2.35-.5.92-.9.46-.38.8-.8 1.06-1.28l.4-.6c.06-.08.22-.25.5-.53l.04-.15a.13.13 0 0 0-.06-.11c-.04-.03-.06-.05-.06-.08-.55.8-1.09 1.62-1.61 2.44-.03.05-.08.08-.15.08-.18 0-.27-.05-.27-.15a11.2 11.2 0 0 1 1.28-3.38.48.48 0 0 1-.36-.13c-.08-.1-.13-.17-.13-.25l.04-.11c.28-.95.6-1.92.98-2.9-.48-.02-.72-.18-.72-.48 0-.1.08-.26.23-.49a16.67 16.67 0 0 1 3.3-5.6c.2-.5.4-.95.6-1.35a6.8 6.8 0 0 1 1.4-3.34 7.44 7.44 0 0 0 1.35-2.56c.25-.88.42-1.76.52-2.67.13-1.35.5-2.69 1.1-4.02.22-.45.46-1.05.7-1.8.46-1.13.8-2.07 1.06-2.82.3.05.56.08.79.08a2.3 2.3 0 0 0 1.5-.57c.2-.15.42-.28.66-.39.24-.11.53-.17.86-.19.34-.01.6-.08.75-.2.17-.13.3-.27.4-.42.1-.15.24-.28.41-.41a4.36 4.36 0 0 1 2.52-.86c.8 0 1.61.25 2.44.75.45.22.92.33 1.4.33l.52-.03c1.95-.23 3.05-.38 3.3-.45.38-.08 1.02-.14 1.92-.2a63.32 63.32 0 0 1 5.63-.07c.76.03 1.9.04 3.42.04.3 0 .59.05.85.13.26.09.47.3.62.62l-2.33-.04-2.33.04c1.2.18 2.4.37 3.57.57 1.63.27 3.23.5 4.8.67.28 0 .55-.01.8-.04l.07.04v.04l-.07.04.33.03a25.11 25.11 0 0 0 1.8.08l.95.04v.04c0 .02-.02.03-.04.03-2.15.2-4.72.3-7.7.3-.13.1-.19.22-.19.34 0 .1.06.23.19.38.12.15.4.22.82.22l1.1-.07 6.27-.23 2.51-.11c-.77.53-1.53.86-2.27 1-.74.13-1.47.21-2.2.24l-.26.04c-.63 0-1.08.05-1.37.15-.29.1-.43.32-.43.67v.12c0 .2-.14.33-.42.4-.45.13-.93.2-1.46.2l-3.53.49c-1.25.2-2.4.34-3.44.43-1.04.09-2.65.14-4.83.17-.5 0-.8-.03-.9-.08-.12 0-.2-.01-.22-.04l-1.02.04c-.9.05-1.56.2-1.99.47-.43.26-.7.63-.83 1.1l-.63 1.89c-.8 2.4-1.2 3.74-1.2 4.02 0 .27.1.48.33.62s.93.2 2.1.2h1.24l1.17.08c.07.02.14.06.2.11l.25.15c.1.05.46.13 1.09.23 1.2.17 2.84.29 4.92.34l2 .03c-.6.4-1.41.6-2.41.6-.8 0-1.47.14-2 .42a14.71 14.71 0 0 0 5.27.52l1.2-.03c1.35 0 2.67.18 3.94.56-.52-.08-1.02-.11-1.5-.11-1.43 0-2.73.32-3.9.97-.4.23-1.03.34-1.88.34-1 .15-2 .35-2.97.6-1.83.5-3.68.75-5.56.75-.6 0-1.18-.05-1.73-.15-.33-.07-.93-.16-1.8-.26-1.06.23-2.6.41-4.63.56-.9.08-1.5.3-1.82.66-.31.37-.52.76-.62 1.18a53.66 53.66 0 0 1-2.29 5.45c2-2.93 3.22-4.73 3.65-5.4l.07-.05c.03.03.05.04.08.04.02 0 .03.02.03.04l-.03.04a72.3 72.3 0 0 1-3.24 8.26l-1.39 3.05c1.26-.13 2.18-.2 2.78-.2.4 0 1.13-.02 2.18-.07a82.3 82.3 0 0 1 4.32-.18c.66-.3 1.3-.46 1.92-.46.75 0 1.67.14 2.74.42a28.33 28.33 0 0 0 1.8.3c.3.05.62.07.95.07.04 0 .1.04.18.12l2.1.4.08.12c-.05.05-1.13.09-3.23.11-.93.13-1.57.25-1.93.36a.9.9 0 0 0-.66.73 30.07 30.07 0 0 0 7.96-.26c1.13-.15 2.28-.27 3.46-.38a4.48 4.48 0 0 1-2.9 1.2c-.37.06-.73.12-1.08.2-.55.15-1.15.25-1.79.31s-1.24.17-1.82.3-1.05.41-1.43.81c-.1.1-.47.15-1.12.15l-.5-.03c-.17 0-.33 0-.48.03-.43.08-.86.13-1.32.15-1.27.05-2.49.28-3.64.68 2-.13 4-.34 5.97-.64h.12c0 .08-.03.11-.08.11-3.33.98-6.79 1.6-10.37 1.84l-2.14.2c-.9.12-1.76.2-2.6.22ZM53 32.76c.9-1.28 1.62-2.55 2.18-3.83l.82-1.7.1-.1a.3.3 0 0 0 .05-.2l-.03-.05-.02-.11a1.04 1.04 0 0 1-.02-.2c.05-.36.17-.71.37-1.06.28-.45.42-.94.42-1.47l-.42.38-.71 1.43c0 .3.07.55.22.75l.16.26c0 .08-.1.11-.27.11s-.31.02-.41.06l-.3.1c-.68 1.6-1.3 3.2-1.88 4.8l-.26.83Zm14.54-10.14c.52-.83 1.03-1.67 1.54-2.52l.86-1.4.23-.97a6.47 6.47 0 0 0-1.54 2.05c-.48.91-.84 1.86-1.1 2.84Zm.03 2.63a10.7 10.7 0 0 0 1.43-2.9l-1.46 2.86.03.04Z"/>
  <path d="M111.72 59.13c-.3-1.63-.53-3.25-.68-4.86s-.37-3.23-.67-4.83a9.4 9.4 0 0 0-1.62 2.74c-.05.05-.11.07-.19.04h-.1c-.03 0-.05-.01-.05-.04-.17-.67-.31-1.39-.41-2.14-.3-.1-.45-.26-.45-.49a.6.6 0 0 1 .07-.26c.13-.28.24-.56.34-.86.05-.35.15-.72.3-1.11.15-.39.3-1.24.45-2.54a22 22 0 0 1 .5-2.7c.22-.93.48-1.87.78-2.82.4-1.28.74-2.56 1.01-3.83.08-.25.12-.48.12-.68 0-.37-.11-.62-.32-.73a2.11 2.11 0 0 0-.96-.17c-.4 0-.93.05-1.58.15-1.35.18-2.35.34-2.99.5-.63.17-1.14.42-1.52.76-.37.34-.84.88-1.39 1.63l-.07.08a230.47 230.47 0 0 1-6.88 8.83c-.57.65-1.22 1.28-1.95 1.9-.73.6-1.4 1.26-2 1.97-.17.22-.6.33-1.27.33-.4 0-.8.05-1.2.15.25-.42.37-.9.37-1.42a51.36 51.36 0 0 1-7.43 5h-.12v-.04a25 25 0 0 0 3.08-3.99c.56-.82 1.14-1.64 1.77-2.44-.08-.07-.11-.14-.11-.19 0-.1.06-.25.18-.45.1-.1.17-.19.2-.26.42-.63.63-1.11.63-1.47 0-.3-.12-.63-.37-1.01a.95.95 0 0 1-.2-.56c0-.38.3-.9.87-1.58l.15-.19c1.05-1.28 2.14-2.55 3.27-3.83l.11-.15c.55-.53.95-1.15 1.2-1.88-2.77-.35-4.34-.56-4.7-.64l.42-1.2c-1.37-.08-2.73-.18-4.05-.3l-3.16-.19-.04-.07h.04c1.2-.18 2.4-.4 3.57-.64 1.58-.58 3.27-.9 5.07-.98 1.1-.1 2.18-.32 3.23-.68l1.05-.3a6.5 6.5 0 0 1-.71-.03 10.5 10.5 0 0 1-2.03-.23c0-.02.04-.05.11-.07A41.4 41.4 0 0 0 95 29.9a55.84 55.84 0 0 1 3.08-.4c.28-.2.51-.46.71-.76 1.7-2.5 3.49-4.98 5.34-7.44.68-.9 1.34-1.81 1.99-2.74.4-.68.84-1.34 1.32-2 .35-.5.73-1.08 1.16-1.76a11.41 11.41 0 0 1 2.67-3.2c.5-.42.96-.86 1.39-1.33.42-.46.69-.97.79-1.52.02-.02.06-.03.1-.03.03 0 .05 0 .05.03 0 1.48-.2 2.96-.6 4.44.42-.38.87-.74 1.35-1.1.85-.5 1.83-.74 2.93-.74 1.4 0 2.1.2 2.1.63l-.04.27c0 .32.16.57.47.73.32.16.74.3 1.26.4l.5.1c.8.2 1.37.38 1.72.53.35.15.56.35.64.6.05.15.07.36.07.6l-.03.64a99.73 99.73 0 0 1-2.6 17.25 67.38 67.38 0 0 0 3.12-11.54c0-.02.03-.05.08-.07h.1l.05.07c-.15 2.56-.37 5.09-.66 7.6-.29 2.5-.77 5.02-1.45 7.54-.4 1.5-.76 3.06-1.09 4.66a60.17 60.17 0 0 1-1.22 5.3 22.62 22.62 0 0 1-2.08 5.03c-.05.1-.15.18-.3.23h-.45c-.23-.05-.37-.59-.42-1.62-.25.45-.37.92-.37 1.4 0 .22-.27.48-.8.78-.44.2-.73.44-.86.72-.2.42-.42.85-.67 1.27a9.7 9.7 0 0 0-1.05 2.48l-.08.2c-.02.3-.13.6-.32.93s-.58.68-1.18 1.05Zm.22-29.94c.28 0 .6-.02.94-.06.35-.03.63-.25.83-.65.88-1.76 1.31-3.15 1.31-4.17 0-.33-.02-.65-.07-.98a8.9 8.9 0 0 0-2.4 2.14 8.5 8.5 0 0 1-1.73 1.7l-.15.07c-.08 0-.12-.24-.12-.72 0-.15 0-.24.02-.28s.07-.1.17-.2c.68-.16 1.02-.5 1.02-1.02v-.22c-.58.37-.93.73-1.06 1.08a.94.94 0 0 1-.22.42h-.04c-.2.12-.39.26-.56.41l-.12.08c-.17.17-.26.3-.26.37 0 .05.06.1.19.15h.07c.1 0 .22-.02.34-.05.13-.04.27-.06.42-.06.12.03.18.09.18.19 0 .2-.13.43-.4.7-.25.26-.39.5-.39.73 0 .07.03.17.08.3.5 0 .89 0 1.16.03.28.03.54.04.8.04ZM129.67 57.14h-.12l-.11-1.31a64.67 64.67 0 0 1-.19-7.82c.03-1.25.42-2.93 1.17-5.03-.1-.55-.27-.89-.51-1.02a1.5 1.5 0 0 0-.7-.18h-.15c-.17 0-.35-.03-.52-.1s-.26-.24-.26-.54c0-.15.02-.35.07-.6l.15-1.17c.1-1.4.48-2.75 1.13-4.06.1-2.15.45-4.25 1.05-6.3.08-.7.11-1.32.11-1.85 0-.47-.03-.9-.1-1.26a4.24 4.24 0 0 0-.25-.94 5.43 5.43 0 0 1-.3-1.05c-.1-.44-.14-1.14-.14-2.12 0-.5 0-.95-.03-1.35v-.5c0-.77.05-1.47.17-2.1.1-.62.49-1.54 1.14-2.74.23-.37.4-.69.53-.94.05-.15.07-.3.07-.45v-.15a4.4 4.4 0 0 1-.11-.9 2 2 0 0 1 .13-.7c.09-.23.25-.45.47-.65.23-.2.43-.45.6-.73a3 3 0 0 0 .34-1.26c0-.03.02-.06.07-.1s.12-.07.21-.11c.09-.04.18-.1.28-.17l.3.23c.15-1.08.41-2.14.77-3.18a9.28 9.28 0 0 1 1.83-3.02c.02-.03.06-.04.1-.04.1 0 .16.04.16.11-.38.8-.56 1.54-.56 2.22 0 .93.3 2.03.9 3.3.37.86.72 1.92 1.05 3.2l.04.11-.12 1.05c0 .13 0 .24-.03.34v.19c.2.45.37.9.52 1.35.68-1.25 1.12-2.49 1.32-3.72 0-.02.01-.03.04-.03.04 0 .07 0 .07.03.13 1.16.35 2.06.68 2.7.32.86.48 1.62.48 2.3 0 .43-.05.91-.15 1.46-.07 2.1-.76 4.25-2.06 6.43l-.04.71c0 .45.11 1 .34 1.62.2.47.34 1.09.41 1.84l.04.56c.07 1 .11 1.8.11 2.4l-.11 2.71-.04.42c0 .15.02.3.06.46.04.17.2.35.5.55.53-.23.92-.64 1.17-1.24l.19-.38a85.76 85.76 0 0 0 2.18-4.1c.52-1.07 1.1-2.14 1.73-3.2.62-1.07 1.55-2.4 2.77-4 .23-.28.44-.57.64-.87a7.83 7.83 0 0 1 2.9-2.82c.05.03.07.1.07.2 0 .12-.12.42-.36.91-.23.5-.42.92-.54 1.3a9.93 9.93 0 0 0-.13.66c-.01.06-.18.25-.5.58-1.74 1.95-3.08 4-4.03 6.16.45-.55.93-1.1 1.43-1.65a25.2 25.2 0 0 0 1.78-2.14 6.97 6.97 0 0 0 1.24-2.65c.02-.1.04-.2.08-.3.04-.12.2-.21.5-.29.68-.32 1.15-.72 1.4-1.18s.42-.92.52-1.37l.08-.3c0-.18-.1-.26-.27-.26-.12 0-.3.05-.5.16-.22.12-.41.17-.59.17-.02 0-.05-.01-.07-.05-.03-.04-.04-.15-.04-.32 0-.43.24-.7.72-.83a5.06 5.06 0 0 0 1.9-.79c.3-.27.52-.59.63-.94.11-.35.36-.76.73-1.24l.23-.26c.3-.37.64-.72 1.01-1.03.38-.32.87-.54 1.47-.68a3.4 3.4 0 0 0 1.37-.58c.31-.25.57-.53.77-.83a3.72 3.72 0 0 1 2.18-1.42 26.46 26.46 0 0 1 3.6-3.46l2-2.22c.32-.35.6-.64.8-.88.22-.24.34-.36.36-.36-.07.65-.38 1.58-.92 2.78-.54 1.2-1.12 2.46-1.75 3.76a52.74 52.74 0 0 0-1.69 3.72c.55.1.83.29.83.56 0 .13-.13.37-.38.72l-.18.26a54.85 54.85 0 0 1-3.16 4.15 187.15 187.15 0 0 1-3.46 3.96c-.75.76-1.34 1.5-1.76 2.26.98-.9 1.76-1.69 2.37-2.35.6-.66 1.31-1.48 2.14-2.46.05-.05.12-.08.22-.08.23 0 .34.08.34.23v.04a23.86 23.86 0 0 1-2.31 3.45c-.76.93-1.5 1.77-2.23 2.52a29.5 29.5 0 0 0-2.43 2.76 19.58 19.58 0 0 0-2.27 3.93c-.4.95-.75 1.66-1.03 2.12-.3.46-.62.82-.98 1.07-.36.25-.83.51-1.41.79-.4.18-.89.43-1.47.75l-1.16 1.43c-.68.85-1.38 1.7-2.1 2.55a42.07 42.07 0 0 0-3.84 5.15c-.05.08-.1.11-.18.11-.15 0-.23-.03-.23-.1 0-.1.01-.17.04-.2l-1.35 1.7a54.42 54.42 0 0 1-4.47 5.25 2 2 0 0 1-.23-.9c0-.47.28-1.08.83-1.8.47-.68.71-1.2.71-1.58 0-.12-.02-.26-.07-.41a5.3 5.3 0 0 0-.87-.08c-.58 0-1.08.09-1.5.26l-.38.57c-.82 1.25-1.59 2.5-2.29 3.75a18.7 18.7 0 0 0-1.61 3.76Zm3.34-23.1c.2-.98.3-1.9.3-2.75 0-1.32-.29-3.01-.86-5.07-.25-.95-.48-1.91-.68-2.89a32.1 32.1 0 0 0-.26 3.42c0 .78.1 1.71.33 2.82.18.87.37 2.24.57 4.1.25.07.45.18.6.33v.04Zm4.77 2.81a.85.85 0 0 0 .23-.56l-.23-.9a.84.84 0 0 1-.11.26c-.08.2-.11.43-.11.68 0 .2.07.37.22.52Z"/>
  <path d="M167.94 61.99c-.13 0-.33-.06-.6-.19a3.62 3.62 0 0 1-.08-.71c0-.2.04-.44.13-.7.09-.26.23-.56.43-.88.13-.23.24-.44.32-.64.09-.2.18-.38.28-.53.2-.35.34-.73.42-1.16l.04-.23c0-.35-.17-.77-.5-1.27-.27 0-.42.05-.46.17-.04.1-.06.23-.06.35v.53c-.02.12-.08.21-.17.26-.09.05-.25.08-.5.08a11.4 11.4 0 0 1-.2-3.67c.06-.61.37-1.3.95-2.04.12-.2.18-.43.18-.68 0-1 .83-3.12 2.48-6.35l.38-.94a17.96 17.96 0 0 1 3-5.56c.1-.2.16-.4.16-.6 0-.32-.16-.71-.47-1.16a8.73 8.73 0 0 0-1.3-1.43 5.78 5.78 0 0 1-1.28-1.54c-.05-.13-.14-.19-.26-.19-.13 0-.29.06-.49.17a3 3 0 0 1-.41.2c-.05 0-.08-.03-.08-.1 0-.06.01-.14.04-.25a1.52 1.52 0 0 0 0-.66c-.03-.1-.04-.2-.04-.3h-.15c.6-.5.9-.98.9-1.43 0-.52-.28-1.16-.86-1.91a7.8 7.8 0 0 1-.64-1.05h.15l.04-.53a3.6 3.6 0 0 0-.55-1.8c-.36-.63-.84-1.28-1.44-1.96l-.68-.86a5.24 5.24 0 0 1-.97-2.7c-.08-.5-.2-1-.34-1.5a3.9 3.9 0 0 0-.87-1.47c.75-.4 1.13-.8 1.13-1.2 0-.43-.13-.83-.38-1.2-.25-.38-.4-.75-.45-1.1 0-.37.2-.72.57-1.05l.07.04a18.04 18.04 0 0 1-1.44-2.22 5.6 5.6 0 0 1-.7-2.4c0-.13.07-.21.2-.25.14-.04.35-.05.63-.05.12.02.2.1.26.22.33 1.05.91 2 1.77 2.82.85.83 1.8 1.61 2.85 2.37 1.2.9 2.3 1.86 3.3 2.89-.2-.83-.4-1.64-.63-2.44 0-.03.02-.05.05-.08a.23.23 0 0 1 .14-.04c.05 0 .08.02.1.04 4.8 5.16 7.5 9.88 8.16 14.16 0 .08.03.14.1.2l.13.1h.03a60.24 60.24 0 0 1 2.97-3.96c.03-.04.1-.1.23-.2l.11-.08c.17 0 .48-.66.9-2l.49-1.38c.05-.25.3-.48.75-.68.9-1.2 1.47-1.8 1.7-1.8l.1-.04c.03 0 .05 0 .08.02.02.01.04.03.04.06l-.04.07c-.3.55-.55 1.1-.75 1.62-.03.02-.04.1-.04.22l-.15.3a7.51 7.51 0 0 1-.3 1.13c.45-.32.81-.49 1.09-.49l.49-.97a7 7 0 0 1 1.65-2.6c.43-.37.81-.91 1.17-1.61.05-.1.18-.18.4-.23l.2-.22c.35-.5.62-.85.82-1.05l.8-.83.3-.56v-.08c.02-.05.07-.13.16-.24.09-.12.38-.26.88-.44v.04c.03 0 .05 0 .06-.02l.02-.05a39.02 39.02 0 0 1 4.28-2.78c.75-.43 1.52-.9 2.3-1.4l.18-.03c.2 0 .3.05.3.15a10.96 10.96 0 0 0-2.12 2.35 31.8 31.8 0 0 0-1.52 2.5c-.3.55-.6 1.06-.9 1.54-.38.6-.72 1.2-1.02 1.8.18-.15.47-.24.87-.26-.05.2-.17.42-.34.65-.18.24-.26.45-.26.62 0 .1.06.2.18.27.9-.96 1.81-1.89 2.73-2.8.91-.92 1.77-1.8 2.57-2.65h.11l-.03.04a29.4 29.4 0 0 0-2.45 4.54c-.57 1.25-1.22 2.5-1.93 3.74s-1.66 2.44-2.84 3.59a167.66 167.66 0 0 1-3.98 5.07 71.9 71.9 0 0 0-2.37 3.27 96.2 96.2 0 0 1-2.14 2.97c-.12.47-.47 1.44-1.05 2.89.58-.53 1.21-1.04 1.92-1.54a.26.26 0 0 1 .18-.08c.08 0 .14.02.2.04.04.03.07.05.07.08v.03a47.4 47.4 0 0 0-5 7.78c-.28.38-.41.64-.41.79 0 .05.01.09.03.11.18.18.27.45.27.83 0 .5-.15.75-.45.75a51.34 51.34 0 0 1-2.37 4.13c-.58 1.1-1.3 2.19-2.2 3.25a5.97 5.97 0 0 1-3.4 2.05c-.15 0-.26-.03-.34-.1s-.1-.15-.1-.28c0-.05.03-.08.1-.1.6-.23 1.2-1.17 1.8-2.83-1.65.45-2.75 1.36-3.3 2.7-.47.86-1.01 1.65-1.61 2.37a9.71 9.71 0 0 0-2.18 3.91v.12c0 .27-.1.4-.3.4Zm14.61-33.4a8 8 0 0 0 1.4-3.3l-1.55 1.53c-.48.43-.94.87-1.39 1.32.13.05.2.11.23.19.17.17.53.26 1.09.26h.22ZM210.88 56.77c-.38 0-.57-.12-.59-.36l-.01-.7c0-1.92.27-3.88.82-5.86l.15-.64c-.25-.15-.37-.3-.37-.45 0-.17.07-.37.22-.6a4.16 4.16 0 0 0 .41-2.78.8.8 0 0 0-.45-.6c-.27.9-.67 1.8-1.2 2.7l-.07.04-.11-.03a6.4 6.4 0 0 1-.72-2.9c0-.97.21-2.12.64-3.45.2-.73.43-1.47.68-2.22.27-1.35.7-2.98 1.27-4.88-.2-.83-.3-1.66-.3-2.48 0-2 .54-3.93 1.62-5.79l.19-.37c.22-.45.53-1 .92-1.64a4.4 4.4 0 0 1 1.33-1.44l1.84-5.6a21.97 21.97 0 0 1 2.22-5.04c.1-.22.22-.42.35-.6.14-.17.36-.3.64-.35.3-.07.57-.2.85-.4.27-.2.57-.3.9-.3.2 0 .43.06.68.19.37.22.56.46.56.71 0 .28-.13.6-.38.98-.15.25-.22.44-.22.56 0 .18.19.3.56.38l.38.04c.57 0 .96-.33 1.16-.98.1-.23.17-.46.2-.71.04-.58.27-1.07.67-1.47.52.08.84.2.95.4.12.18.17.38.17.58v.11c0 .4.12.68.34.83h.26c.28 0 .56-.03.85-.1.29-.06.58-.1.88-.1.3 0 .6.1.87.29.27.19.47.41.58.68s.2.53.24.8l.12.46a75.03 75.03 0 0 1 1.57 7.32 58.32 58.32 0 0 0 1.92 8.42c.18.87.58 1.59 1.2 2.14l2.48-2.48c1.83-1.9 3.73-3.75 5.71-5.52 1.05-.98 1.9-2.02 2.56-3.12.42-.9.95-1.78 1.58-2.63.55-.98 1.2-1.94 1.99-2.9l.1.04c1.71-2.2 4.14-3.93 7.3-5.18l.26-.04c.1.03.15.08.15.15 0 .05-.01.09-.04.11a15.88 15.88 0 0 0-2.4 3.35 7.3 7.3 0 0 1 2.67-.72c.25-.02.45-.1.62-.22.16-.13.3-.26.4-.4s.25-.26.38-.37c.14-.11.27-.25.4-.4.42-.8.94-1.56 1.56-2.27a7.32 7.32 0 0 1 2.57-1.82l.15-.04c.1.03.15.09.15.19a7.84 7.84 0 0 0-1.05 2.6c-.18.9-.3 1.8-.38 2.73-.07 1.28-.3 2.55-.67 3.8v.07a3.46 3.46 0 0 1 .45-.56l.04.04c-.35.7-.67 1.4-.94 2.1.42.63.64 1.24.64 1.84 0 .8-.33 1.77-.98 2.9-.55.95-1.02 1.92-1.4 2.92-.4 3.29-.77 5.78-1.12 7.48-.37 1.88-.99 3.7-1.84 5.49-.2.35-.52.55-.98.6a57.04 57.04 0 0 1-2.7 6.53c-.75 1.58-1.57 3.42-2.44 5.53-.15.35-.38.68-.68 1.01l-.41.45c-.25-.12-.38-.25-.38-.37a1 1 0 0 1 .12-.45 1 1 0 0 0 .1-.46c0-.12-.12-.26-.37-.4a6.4 6.4 0 0 0-1.84 3.07 8.41 8.41 0 0 1-1.01 2.22c-.53-.2-.8-.45-.8-.75l.08-.42c.18-.35.27-.85.27-1.5 0-1.28-.6-2.77-1.8-4.47a1.53 1.53 0 0 1-.27-.83c0-.37.14-.82.41-1.35l.04-.07a28.4 28.4 0 0 0 1.88-5.15c.37-1.6 1.18-3.57 2.4-5.9a6.7 6.7 0 0 0 .94-4.58l-1.05 1.09c-.78.77-1.5 1.57-2.18 2.4a71.56 71.56 0 0 1-2.67 3.08 65.78 65.78 0 0 0-3.08 3.72c-.67.88-1.1 1.4-1.27 1.58l-1.73 1.95c-.28.43-.54.64-.79.64h-.11c-.33-.1-.62-.15-.87-.15-.52 0-1.01.28-1.46.83-.18.2-.38.37-.62.52-.24.15-.36.32-.36.5a.72.72 0 0 0-.06.14c0 .05-.15.13-.43.23-.07.02-.11.05-.11.07h-.04l-.04-.19-.03-.33c0-.1.07-.23.22-.38.23-.22.38-.47.45-.75-.77.4-1.25.66-1.42.79-.03.05-.04.22-.04.52 0 .15-.13.23-.38.23h-.19c-.15.25-.37.59-.67 1.01h-.15c-.5-.17-.75-.4-.75-.67 0-.1.05-.23.15-.4a2.32 2.32 0 0 0 .32-.86 1.22 1.22 0 0 1 .32-.77c-.7-1.7-1.34-3.49-1.9-5.35-.57-1.87-.85-3.7-.85-5.5v-.23c-.52-2.2-.95-4.4-1.27-6.58l-.57-3.38c-.05.25-.12.5-.22.75l-.04.12c-.2-.03-.34-.07-.41-.14s-.12-.17-.12-.32v-.22c0-.18-.1-.3-.3-.38a9.7 9.7 0 0 0-1.5 2.52 30.02 30.02 0 0 0-1.13 3.16c-.15.45-.3.82-.45 1.12a9.1 9.1 0 0 0-1.12 3.84l.07-.12c.45-.57.83-1.16 1.13-1.74.3-.6.45-1.24.45-1.94-.03-.02-.06-.07-.1-.13s-.05-.16-.05-.28c0-.13.12-.23.37-.3.43-.13.7-.44.83-.94.2-.38.36-.75.49-1.13.2-.7.6-1.38 1.2-2.03-.05.48-.4 1.74-1.05 3.78a314.5 314.5 0 0 1-4.83 13.7 27 27 0 0 1-1.52 3.56c-.33 0-.55-.06-.68-.17a1.2 1.2 0 0 1-.3-.43.96.96 0 0 0-.15-.26l-.71 2.06a7.87 7.87 0 0 1-2.52 4.17c-.47.43-.9.88-1.26 1.35a2.8 2.8 0 0 0-.58 1.62c0 .25-.19.38-.56.38Zm14.91-32.31-.11-.64-.08-.23c-.1.05-.16.1-.18.15l-.04.04c0 .08.02.14.07.19.15.17.27.34.34.49Zm10.9 9.69a18.52 18.52 0 0 0 6.35-7.63c-.66.4-1.49 1.06-2.5 1.96-1.02.9-1.91 1.86-2.69 2.87-.78 1.02-1.16 1.92-1.16 2.72v.08ZM271.85 50.87c-.98 0-2-.06-3.08-.19-.12 0-.2-.02-.22-.08l-2.03.2c-.63.04-1.26.07-1.88.07H264c-.83 0-1.64-.18-2.44-.53a32.27 32.27 0 0 0-2.16.13c-.02 0-.02-.03-.02-.05h.04c.5-.15.96-.27 1.39-.34-.4-.08-.85-.11-1.36-.11l-.95-.08c-.32-.02-.6-.07-.85-.15a.8.8 0 0 1-.53-.41l-.03-.15c0-.23.32-.43.97-.6.23-.13.57-.2 1.02-.23.75-.07 1.18-.24 1.27-.49 0-.27-.16-.5-.48-.67-.65-.38-.98-.73-.98-1.06l.06-.33c.03-.2.34-.5.92-.9.45-.38.8-.8 1.05-1.28l.41-.6c.05-.08.21-.25.49-.53l.04-.15a.13.13 0 0 0-.06-.11c-.04-.03-.05-.05-.05-.08-.56.8-1.1 1.62-1.62 2.44-.03.05-.08.08-.15.08-.18 0-.26-.05-.26-.15a11.2 11.2 0 0 1 1.27-3.38.48.48 0 0 1-.35-.13c-.1-.1-.13-.17-.13-.25l.03-.11c.28-.95.6-1.92.98-2.9-.48-.02-.71-.18-.71-.48 0-.1.07-.26.22-.49a16.67 16.67 0 0 1 3.3-5.6c.2-.5.4-.95.6-1.35a6.8 6.8 0 0 1 1.4-3.34 7.44 7.44 0 0 0 1.35-2.56c.25-.88.43-1.76.53-2.67.12-1.35.49-2.69 1.09-4.02.22-.45.46-1.05.71-1.8.45-1.13.8-2.07 1.05-2.82.3.05.57.08.8.08a2.3 2.3 0 0 0 1.5-.57c.2-.15.41-.28.65-.39.24-.11.53-.17.87-.19.33-.01.58-.08.75-.2.16-.13.3-.27.4-.42.1-.15.23-.28.4-.41a4.36 4.36 0 0 1 2.52-.86c.8 0 1.62.25 2.44.75.45.22.92.33 1.4.33l.52-.03c1.95-.23 3.06-.38 3.3-.45.38-.08 1.02-.14 1.92-.2a63.3 63.3 0 0 1 5.64-.07c.75.03 1.89.04 3.42.04.3 0 .58.05.84.13.26.09.47.3.62.62l-2.33-.04-2.33.04c1.2.18 2.4.37 3.57.57 1.63.27 3.23.5 4.81.67.28 0 .54-.01.79-.04l.07.04v.04l-.07.04.34.03a25.1 25.1 0 0 0 1.8.08l.94.04v.04c0 .02-.01.03-.04.03-2.15.2-4.72.3-7.7.3-.13.1-.19.22-.19.34 0 .1.06.23.19.38s.4.22.83.22l1.09-.07 6.27-.23 2.52-.11c-.78.53-1.54.86-2.28 1-.73.13-1.47.21-2.2.24l-.26.04c-.62 0-1.08.05-1.37.15-.29.1-.43.32-.43.67v.12c0 .2-.14.33-.41.4-.45.13-.94.2-1.47.2l-3.53.49c-1.25.2-2.4.34-3.44.43a73 73 0 0 1-4.82.17c-.5 0-.8-.03-.9-.08-.13 0-.2-.01-.23-.04l-1.02.04c-.9.05-1.56.2-1.99.47-.42.26-.7.63-.82 1.1l-.64 1.89c-.8 2.4-1.2 3.74-1.2 4.02 0 .27.1.48.33.62s.93.2 2.1.2h1.25l1.16.08c.08.02.15.06.2.11l.25.15c.1.05.47.13 1.1.23 1.2.17 2.83.29 4.91.34l2 .03c-.6.4-1.4.6-2.4.6-.81 0-1.48.14-2 .42a14.7 14.7 0 0 0 5.26.52l1.2-.03c1.35 0 2.67.18 3.95.56-.53-.08-1.03-.11-1.5-.11-1.43 0-2.74.32-3.91.97-.4.23-1.03.34-1.88.34-1 .15-2 .35-2.97.6-1.83.5-3.68.75-5.56.75-.6 0-1.18-.05-1.73-.15-.32-.07-.93-.16-1.8-.26-1.05.23-2.6.41-4.62.56-.9.08-1.51.3-1.82.66-.32.37-.52.76-.62 1.18a53.66 53.66 0 0 1-2.3 5.45c2-2.93 3.22-4.73 3.65-5.4l.07-.05c.03.03.05.04.08.04.02 0 .04.02.04.04l-.04.04a72.3 72.3 0 0 1-3.23 8.26l-1.4 3.05c1.26-.13 2.19-.2 2.79-.2.4 0 1.12-.02 2.18-.07a82.3 82.3 0 0 1 4.32-.18c.65-.3 1.29-.46 1.91-.46.75 0 1.67.14 2.74.42a28.4 28.4 0 0 0 1.8.3c.3.05.62.07.95.07.05 0 .11.04.19.12l2.1.4.07.12c-.05.05-1.12.09-3.23.11-.92.13-1.57.25-1.93.36a.9.9 0 0 0-.66.73 30.07 30.07 0 0 0 7.97-.26c1.12-.15 2.27-.27 3.45-.38a4.48 4.48 0 0 1-2.9 1.2c-.37.06-.73.12-1.08.2-.55.15-1.15.25-1.78.31s-1.25.17-1.83.3-1.05.41-1.42.81c-.1.1-.48.15-1.13.15l-.49-.03c-.18 0-.34 0-.49.03-.42.08-.86.13-1.31.15-1.28.05-2.5.28-3.65.68 2-.13 4-.34 5.98-.64h.1c0 .08-.02.11-.07.11-3.33.98-6.78 1.6-10.37 1.84l-2.14.2c-.9.12-1.76.2-2.59.22Zm-6.46-18.11c.9-1.28 1.63-2.55 2.18-3.83l.83-1.7.09-.1a.3.3 0 0 0 .06-.2c-.03-.02-.04-.04-.04-.05l-.02-.11a1.04 1.04 0 0 1-.02-.2c.05-.36.18-.71.38-1.06.27-.45.4-.94.4-1.47l-.4.38-.72 1.43c0 .3.08.55.23.75l.15.26c0 .08-.1.11-.27.11s-.3.02-.4.06l-.3.1c-.69 1.6-1.31 3.2-1.89 4.8l-.26.83Zm14.54-10.14c.52-.83 1.04-1.67 1.54-2.52l.86-1.4.23-.97a6.47 6.47 0 0 0-1.54 2.05c-.48.91-.84 1.86-1.1 2.84Zm.04 2.63a10.7 10.7 0 0 0 1.42-2.9l-1.46 2.86.04.04Z"/>
  <path d="M298.93 64.47c-.46-.08-.68-.2-.68-.38l.22-.37a8.52 8.52 0 0 0 1.2-3.99c.08-.9.26-1.77.53-2.63.2-.5.3-1 .3-1.5 0-.77-.26-1.54-.79-2.29-.27.5-.5 1.05-.67 1.65-.1.33-.15.6-.15.83s.04.41.11.56l.04.08c0 .05-.03.1-.1.15a.37.37 0 0 1-.24.07.4.4 0 0 1-.3-.1 4.58 4.58 0 0 1-1.05-2.94c0-1.18.22-2.5.67-3.98l.27-.87c.25-1.1.87-3.18 1.88-6.23 1-3.06 2.12-6.08 3.36-9.07 1.24-3 2.33-4.96 3.28-5.88.16-.66.4-1.3.72-1.92.32-.63.56-1.25.71-1.88l.19-.83a4.71 4.71 0 0 0 .19-1.99 2.02 2.02 0 0 1 .34-1.54c.57-.75.97-1.34 1.18-1.78.21-.44.38-.88.49-1.34.11-.45.35-1.08.73-1.91a29.58 29.58 0 0 1 2.82-4.92 4.83 4.83 0 0 0-2.03-.06 5 5 0 0 1-1.01.1l-.57-.04c.45-.38 1.3-.63 2.56-.75.9-.05 1.64-.24 2.21-.57-1.07.1-2.15.17-3.23.19-.67.03-1.34.06-1.99.11-.98.15-1.93.23-2.85.23l-1.2-.04-7.26.11c-.12 0-.19-.03-.19-.1v-.08c0-.03 1.1-.3 3.27-.83h-1.87c-2.56 0-5.11-.04-7.67-.11a221.25 221.25 0 0 0-11.23 0c-.1 0-.15-.03-.15-.08 0-.07.02-.11.07-.11A188.2 188.2 0 0 1 296 4.8a45.18 45.18 0 0 1 7.6-3.2c.14-.04.3-.07.48-.07.48 0 .87.11 1.17.34.95.62 1.95.94 3 .94h.34c.98 0 1.97-.1 2.97-.3 1.25-.2 2.28-.3 3.08-.3.77 0 1.51.12 2.22.37.27.1.45.25.52.45l1.1-.07c4.55-.4 9.14-.6 13.78-.6h.82c1.56 0 3.11-.1 4.66-.3 2.58-.33 5.39-.5 8.42-.5 1.98 0 3.96.08 5.93.23-1.92.2-3.25.3-3.98.3.25.18.47.38.64.6.68.76 1.82 1.2 3.42 1.32a39.16 39.16 0 0 0 4.58.08c.55-.03 1.03-.04 1.43-.04.08 0 .13.02.15.05.03.04.04.07.04.1-.03.05-.08.09-.15.11-1.03.13-2.13.31-3.3.56a26.6 26.6 0 0 1-5.5.8c-.44 0-.88-.03-1.3-.08-2.61.17-5.22.55-7.82 1.13l-2.52.45.56.03h.15c.4 0 .76.08 1.06.23-2.3.5-4.65.75-7.03.75l-1.54.04c-1.15 0-1.95.01-2.38.04-.44.02-.79.13-1.04.33l-.3.2a17.43 17.43 0 0 1-2.55 4.69c-.75 1-1.5 2.28-2.26 3.83l-1.12 2.44a119.48 119.48 0 0 0-4.1 9.5c-.07 0-.11-.02-.11-.07.07-1.33.21-2.64.41-3.94-.7 1-1.54 2.96-2.52 5.88-.97 2.91-2 6.13-3.08 9.63-1.1 3.63-2.14 6.88-3.11 9.75-.98 2.87-1.78 4.63-2.4 5.28-.26.22-.4.46-.42.71-.28 1.5-1.47 3.03-3.57 4.59-.23-.13-.34-.25-.34-.38 0-.1.11-.26.34-.47s.34-.37.34-.47c0-.1-.08-.21-.23-.34-.7.23-1.18.51-1.43.85-.25.34-.42.7-.52 1.07-.05.18-.11.36-.19.54-.08.2-.14.4-.19.62a2.87 2.87 0 0 1-1.28 1.95Zm3.94-60.26 1.01-.04a.73.73 0 0 0-.37-.11l-.64.15Zm5.03 43.01c.6-1.07 1.02-2.15 1.24-3.23-.47 1.05-.9 2.12-1.27 3.2l.03.03Zm1.24-4.43 2.26-4.4c.02-.35.07-.7.15-1.05-.6.53-1.12 1.31-1.54 2.35a13.18 13.18 0 0 0-.87 3.1Z"/>
  <path d="M344.49 59.13c-.3-1.63-.53-3.25-.68-4.86s-.37-3.23-.67-4.83a9.4 9.4 0 0 0-1.62 2.74c-.05.05-.11.07-.19.04h-.1c-.03 0-.05-.01-.05-.04-.17-.67-.31-1.39-.41-2.14-.3-.1-.45-.26-.45-.49a.6.6 0 0 1 .07-.26c.13-.28.24-.56.34-.86.05-.35.15-.72.3-1.11.15-.39.3-1.24.45-2.54.1-.87.27-1.78.5-2.7.22-.93.48-1.87.78-2.82.4-1.28.74-2.56 1.01-3.83.08-.25.12-.48.12-.68 0-.37-.11-.62-.32-.73a2.11 2.11 0 0 0-.96-.17c-.4 0-.93.05-1.58.15-1.35.18-2.35.34-2.98.5-.64.17-1.15.42-1.53.76-.37.34-.84.88-1.39 1.63l-.07.08a229.96 229.96 0 0 1-6.88 8.83c-.57.65-1.22 1.28-1.95 1.9-.73.6-1.4 1.26-2 1.97-.17.22-.6.33-1.27.33-.4 0-.8.05-1.2.15.25-.42.38-.9.38-1.42a51.39 51.39 0 0 1-7.44 5h-.12v-.04a25 25 0 0 0 3.08-3.99c.56-.82 1.14-1.64 1.77-2.44-.08-.07-.11-.14-.11-.19 0-.1.06-.25.19-.45.1-.1.16-.19.18-.26.43-.63.64-1.11.64-1.47 0-.3-.12-.63-.37-1.01a.95.95 0 0 1-.2-.56c0-.38.3-.9.87-1.58l.15-.19c1.05-1.28 2.14-2.55 3.27-3.83l.11-.15c.55-.53.95-1.15 1.2-1.88-2.77-.35-4.34-.56-4.7-.64l.42-1.2c-1.37-.08-2.73-.18-4.05-.3l-3.16-.19-.04-.07h.04c1.2-.18 2.4-.4 3.57-.64 1.58-.58 3.27-.9 5.07-.98 1.1-.1 2.18-.32 3.23-.68l1.05-.3a6.5 6.5 0 0 1-.71-.03 10.5 10.5 0 0 1-2.03-.23c0-.02.04-.05.11-.07 1.23-.1 2.43-.25 3.61-.46a55.86 55.86 0 0 1 3.08-.4c.28-.2.51-.46.71-.76 1.7-2.5 3.49-4.98 5.34-7.44.68-.9 1.34-1.81 1.99-2.74.4-.68.84-1.34 1.32-2 .35-.5.73-1.08 1.16-1.76a11.42 11.42 0 0 1 2.67-3.2c.5-.42.96-.86 1.39-1.33.42-.46.69-.97.79-1.52.02-.02.06-.03.1-.03.03 0 .05 0 .05.03 0 1.48-.2 2.96-.6 4.44.42-.38.87-.74 1.35-1.1.85-.5 1.83-.74 2.93-.74 1.4 0 2.1.2 2.1.63l-.04.27c0 .32.16.57.47.73.32.16.74.3 1.26.4l.5.1c.8.2 1.37.38 1.72.53s.56.35.64.6c.05.15.07.36.07.6l-.03.64a99.78 99.78 0 0 1-2.6 17.25 67.33 67.33 0 0 0 3.12-11.54c0-.02.03-.05.08-.07h.11l.04.07c-.15 2.56-.37 5.09-.66 7.6-.29 2.5-.77 5.02-1.45 7.54-.4 1.5-.76 3.06-1.09 4.66a60.17 60.17 0 0 1-1.22 5.3 22.62 22.62 0 0 1-2.08 5.03c-.05.1-.15.18-.3.23h-.45c-.23-.05-.37-.59-.42-1.62-.25.45-.37.92-.37 1.4 0 .22-.27.48-.8.78-.44.2-.73.44-.86.72-.2.42-.42.85-.67 1.27-.48.8-.83 1.63-1.05 2.48l-.08.2c-.02.3-.13.6-.32.93-.19.33-.58.68-1.18 1.05Zm.22-29.94c.28 0 .6-.02.94-.06.35-.03.63-.25.83-.65.88-1.76 1.31-3.15 1.31-4.17 0-.33-.02-.65-.07-.98a8.9 8.9 0 0 0-2.4 2.14 8.51 8.51 0 0 1-1.73 1.7l-.15.07c-.08 0-.12-.24-.12-.72 0-.15.01-.24.02-.28s.07-.1.17-.2c.68-.16 1.02-.5 1.02-1.02v-.22c-.58.37-.93.73-1.06 1.08a.95.95 0 0 1-.22.42h-.04c-.2.12-.39.26-.56.41l-.12.08c-.17.17-.26.3-.26.37 0 .05.06.1.19.15h.07c.1 0 .22-.02.34-.05.13-.04.27-.06.42-.06.12.03.18.09.18.19 0 .2-.13.43-.39.7-.26.26-.4.5-.4.73 0 .07.03.17.08.3.5 0 .89 0 1.16.03.28.03.54.04.8.04ZM360.76 62.7c-.13 0-.33-.02-.6-.05s-.72-.37-1.32-1c-.32-.28-.83-.41-1.5-.41-.68 0-1.33-.13-1.96-.38.06-.15.08-.3.08-.45 0-.55-.4-1.2-1.2-1.95-.25-.3-.4-.57-.45-.8v-.03c0-.23.18-.34.56-.34 1.03 0 1.81-.17 2.35-.5.54-.34.98-.7 1.33-1.1a8 8 0 0 1 1.13-1.03.86.86 0 0 0 .3-.3c.55-.55.83-1.25.83-2.1 0-.33-.04-.68-.12-1.05l-.82.71c-.25.25-.39.37-.4.37h-.05v-.07a.7.7 0 0 0-.08-.24l-.1-.25c0-.05-.02-.1-.05-.17a.39.39 0 0 0-.15-.17c-.58.23-1.08.7-1.5 1.4s-.95 1.18-1.58 1.46l-.3-.3c-.08-.08-.11-.13-.11-.15.52-1.23.91-2.5 1.16-3.8.25-1.3.61-2.54 1.09-3.72 1.65-3.6 3.76-8.54 6.33-14.8 2.57-6.26 4.58-11.24 6.03-14.95.23-.65.41-1.31.56-2 .18-1.07.54-2.08 1.1-3.03.64-1.2 2.06-2.46 4.24-3.76a.82.82 0 0 0 .28-.26 2.16 2.16 0 0 0 .2-.45c.56-.98 1.23-1.88 2.04-2.71a10.43 10.43 0 0 0 2.36-3.68c.03-.2.12-.36.27-.47.15-.11.47-.17.97-.17-.15.83-.42 1.6-.82 2.3a6 6 0 0 0-.87 2.49c-.1.89-.15 1.5-.15 1.82 0 1.2.76 2.22 2.3 3.05l.07.07-.04-.07h-.04c.1.5.15 1 .15 1.5l-.03.79c-.2 1.47-.57 2.9-1.11 4.26a49.84 49.84 0 0 1-1.79 4 53.8 53.8 0 0 0-1.95 4.47c-.1.3-.15.57-.15.8 0 .1.02.17.07.24a1 1 0 0 1 .12.16l-.04.3c-.15.38-.26.6-.34.68-.1.18-.16.37-.19.57v.03c0 .23.14.5.42.83.67-.78 1.14-1.41 1.4-1.9.27-.49.49-.97.66-1.44.18-.58.54-1.38 1.1-2.4-.08 1.57-.25 2.79-.51 3.65-.27.87-.63 1.76-1.08 2.69l-1.8 3.9a17.07 17.07 0 0 1-1.31 5.08l-.64 1.8c-.78 2.7-1.9 5.25-3.38 7.63h-.04a.6.6 0 0 1-.15-.02 6.87 6.87 0 0 1-.08-1.63c0-.86.04-1.7.12-2.56-3.18 5.94-5.1 9.72-5.75 11.35a9.8 9.8 0 0 0 1.76.19c.73 0 1.33-.04 1.8-.12l.27-.04c3.08-.45 5.74-.78 7.96-1.01.2-.02.42-.07.66-.13a3.59 3.59 0 0 1 1.41-.06c.28.03.76.3 1.47.83.3.17.62.26.97.26.5 0 .98-.05 1.43-.15.6-.12 1.2-.19 1.8-.19.08.1.12.18.12.23 0 .1-.12.2-.36.28-.24.09-.36.17-.36.24 0 .06.04.12.12.2.25.24.5.38.78.4h.87c.17-.02.36-.03.56-.03a4.6 4.6 0 0 0 2.14-.45c.4-.33 1-.5 1.8-.5.48 0 1.03.07 1.66.2a.78.78 0 0 1-.32.58c-.19.14-.4.26-.66.36-.25.1-.45.2-.6.33-.15.13-.35.2-.62.23-.26.03-.56.04-.88.04l-.41-.04c-.35 0-.68.05-.98.15-.3.1-.45.35-.45.75v.26c0 .25-.38.47-1.13.64-.37.1-.72.24-1.03.4-.32.16-.47.4-.47.73 0 .08-.05.13-.15.15-.25.1-.55.15-.9.15-5.24.43-10.25 1.09-15.03 2-2.28.4-4.57.76-6.88 1.08l-.56.15c-.28.1-.56.15-.86.15Zm2.44-14.88.9-1.65a27.2 27.2 0 0 1 1.33-5.95c.67-1.92 1.4-3.83 2.2-5.73.93-2.18 1.75-4.4 2.48-6.65l-2.72 5.31c-1 1.95-1.85 3.7-2.58 5.26-.72 1.57-1.1 2.57-1.12 3a3.8 3.8 0 0 0-1.36 1.23c-.15.23-.22.44-.22.64 0 .22.09.44.26.64.5.5.75.92.75 1.28 0 .1-.02.2-.05.33-.04.13-.11.26-.21.4-.1.14-.17.27-.22.4-.1.17-.16.34-.16.52l.04.24c.03.14.25.38.68.73Zm8.15-20.62.11-.23c.38-.57.57-1.09.57-1.54 0-.3-.08-.6-.23-.94l-.49.98.04 1.73Zm7.51-11.57a6.52 6.52 0 0 0 1.54-4.32v-.34c-.55.45-.9.97-1.07 1.56a9.7 9.7 0 0 0-.31 1.82c-.03.43-.08.85-.16 1.28ZM410.08 60.75c.27-.48.58-.9.92-1.28.33-.37.84-.7 1.52-.98-.58-.2-1.13-.3-1.66-.3-.55 0-1.12.08-1.72.23-1.26.25-2.35.37-3.27.37-1.4 0-2.78-.25-4.14-.75-.92-.3-1.9-.45-2.92-.45-.76 0-1.34-.01-1.77-.04-.33-.02-.6-.09-.8-.2a.57.57 0 0 1-.33-.55c.03-.25.15-.4.38-.47s.5-.09.82-.09l1.02.04c1.63 0 3.6-.35 5.93-1.05 1.26-.38 2.55-.68 3.87-.9h.15c.8-.13 1.3-.37 1.49-.74.19-.36.6-.54 1.22-.54h.83c6.98 0 13-2.18 18.07-6.54a5.34 5.34 0 0 0 2.03-4.06V41.3c0-.78-.4-1.9-1.2-3.38-.56-.95-1.75-1.47-3.58-1.54-.82-.05-1.56-.08-2.21-.08-1.53 0-2.73.18-3.6.53-.89.35-1.76 1.39-2.64 3.12-.83 1.5-1.6 3.01-2.33 4.54-.3.6-.49 1.03-.56 1.28s-.28.37-.6.37c-.23 0-.42-.13-.57-.4a.7.7 0 0 0-.52-.53l-1.84 5.6c-.33-.18-.52-.37-.57-.57 0-.3.02-.53.06-.7.04-.16.06-.33.06-.5a.85.85 0 0 0-.27-.45l-.3-.04c-.3 0-.65.16-1.07.47-.41.31-.8.47-1.14.47l-.42-.04a.6.6 0 0 1-.15-.38c0-.15.08-.33.23-.56l.15-.19c.45-.65.67-1.12.67-1.42 0-.1-.06-.24-.2-.4s-1.02-.33-2.65-.5c.68-1 1.2-2.05 1.58-3.12.3-.78.65-1.56 1.05-2.33a42.81 42.81 0 0 0 2.06-4.36 525.6 525.6 0 0 1 4.36-9.32c-.5.83-.96 1.65-1.39 2.48a242.74 242.74 0 0 1-5.1 9.4c-.03.07-.1.1-.2.1-.07 0-.14-.01-.2-.05s-.1-.08-.1-.13l1.32-3.3a129.5 129.5 0 0 1 4.55-10.56l.22-.46h-.15l1.28-3.08c.42-1 1.04-1.79 1.84-2.36 0 .5-.09.91-.26 1.24-.18.32-.4.66-.68 1.01l-.38.56c.28.06.54.08.8.08.22 0 .48-.04.76-.13.3-.09.48-.25.59-.47.32-.6.9-1.1 1.74-1.5.84-.4 1.72-.76 2.65-1.07.93-.32 1.73-.64 2.4-.96.28.15.43.31.46.49 0 .22-.02.4-.04.52-.03.13-.04.32-.04.57 0 .1.13.2.38.33.35-.1.61-.24.79-.43.17-.19.32-.39.45-.6.12-.21.28-.42.47-.62.18-.2.48-.35.88-.45.15.05.24.12.26.2.03.1.04.19.04.29v.26c.55 1.03.83 1.73.83 2.1 0 .2-.06.45-.17.74-.12.29-.38.75-.81 1.39l-1.24 1.9-.83 1.57a44.01 44.01 0 0 0-2.63 5.64c.38.05.76.07 1.13.07.85 0 1.85-.12 2.99-.37 1.14-.25 2.2-.67 3.2-1.24 1.46-.93 2.8-2.4 4.03-4.44a14.82 14.82 0 0 0 2.18-5.52c-.15-.5-.37-.96-.64-1.39-.65-1-1.42-1.86-2.3-2.59a7.9 7.9 0 0 0-3.9-1.58v-.04c.93 0 1.72.07 2.37.2 2.18.14 4.07.74 5.67 1.8.12-.2.19-.4.19-.57 0-.07-.03-.18-.08-.32-.05-.13-.31-.3-.79-.5l-.1-.08a18.84 18.84 0 0 0-5.5-1.5 14.83 14.83 0 0 0-3.26.03l-.87.12c-1.45.1-2.76.41-3.94.94-.3.15-.58.22-.83.22-.27 0-.66-.12-1.16-.37a2.6 2.6 0 0 0-2.14-.38c-.63.15-1.3.24-2.03.26l-3 .6c-1.71.38-3.44.73-5.2 1.06-2.12.4-4.25.85-6.38 1.35-.02 0-.04 0-.05-.02-.02-.01-.02-.03-.02-.06 0-.02 0-.03.03-.03 1.56-.68 3.21-1.44 4.96-2.3 1.48-.75 3.02-1.49 4.62-2.21.3-.55.82-.93 1.54-1.15.73-.21 1.52-.37 2.37-.47l.71-.11c.98-.3 2.07-.58 3.27-.83.58-.1 1.12-.25 1.62-.45a.76.76 0 0 0-.68-.34c-.1 0-.2.02-.28.04a29.75 29.75 0 0 0-2.39.49c-.02 0-.04 0-.05-.02l-.02-.05 1.5-.53c0-.03-.01-.04-.04-.04V9.2c0-.17.3-.3.9-.37.16-.05.3-.08.44-.1.14 0 .27-.03.4-.05 3.07-1.08 5.73-1.62 7.96-1.62.77 0 1.55.07 2.33.2 3.7.1 7.02.92 9.95 2.47 1.4.7 2.5 1.55 3.3 2.54.81.99 1.49 2 2.04 3.06.2.37.35.75.45 1.13a5.5 5.5 0 0 0-.4-3.12 5.95 5.95 0 0 0-2.2-2.44v-.08c0-.02.02-.04.04-.06a.16.16 0 0 1 .08-.02 9.12 9.12 0 0 1 3.6 3.57c.03-.15.07-.28.12-.41.62.58.94 1.13.94 1.65 0 .15-.03.3-.08.42-.07.22-.11.44-.11.64.1.6.15 1.21.15 1.84 0 1.98-.49 3.94-1.47 5.9-.55.92-1.3 1.9-2.27 2.92a12.34 12.34 0 0 1-3.21 2.48 14.77 14.77 0 0 0-1.28 1.32c-.2.2-.7.51-1.5.94-.85.4-1.7.7-2.56.9-.92.28-1.39.48-1.39.6v.04c.03.2.19.5.47.92s.77.83 1.45 1.26c.17-.05.28-.11.3-.19l-.04-.45c0-.15.08-.25.23-.3 2.98 1.7 4.47 3.8 4.47 6.27 0 1.4-.53 2.77-1.58 4.1a4.7 4.7 0 0 0-1.16 2.4 8.67 8.67 0 0 1-2.86 4.66c-.37.38-.69.56-.94.56-.02 0-.1 0-.22-.03-.13-.03-.32-.2-.57-.53a.46.46 0 0 0-.37-.19c-.13 0-.34.09-.64.26-.05.06-.3.18-.75.38s-.87.44-1.24.71c-2.36 1.63-4.99 2.88-7.9 3.74s-5.89 1.6-8.97 2.2l-1.95.45-4.62.98Zm31.67-20.14c.25-.42.37-.84.37-1.24 0-.22-.08-.53-.24-.92-.17-.39-.76-.98-1.79-1.78.23.5.4 1.01.5 1.54.12.82.5 1.63 1.16 2.4Z"/>
  <path d="M472.24 59.13c-.3-1.63-.52-3.25-.68-4.86s-.37-3.23-.67-4.83a9.4 9.4 0 0 0-1.62 2.74c-.05.05-.1.07-.18.04h-.1c-.04 0-.05-.01-.05-.04-.18-.67-.32-1.39-.42-2.14-.3-.1-.45-.26-.45-.49 0-.07.03-.16.08-.26.12-.28.23-.56.33-.86.05-.35.15-.72.3-1.11.16-.39.3-1.24.46-2.54.1-.87.26-1.78.48-2.7.23-.93.5-1.87.8-2.82.4-1.28.73-2.56 1-3.83.08-.25.12-.48.12-.68 0-.37-.1-.62-.32-.73s-.53-.17-.96-.17c-.4 0-.92.05-1.58.15-1.35.18-2.34.34-2.98.5-.64.17-1.15.42-1.52.76-.38.34-.84.88-1.4 1.63l-.07.08a230.98 230.98 0 0 1-6.87 8.83c-.58.65-1.23 1.28-1.96 1.9-.72.6-1.39 1.26-1.99 1.97-.17.22-.6.33-1.28.33-.4 0-.8.05-1.2.15.25-.42.38-.9.38-1.42a51.32 51.32 0 0 1-7.44 5h-.11v-.04a25 25 0 0 0 3.08-3.99c.55-.82 1.14-1.64 1.76-2.44-.07-.07-.1-.14-.1-.19 0-.1.05-.25.18-.45.1-.1.16-.19.19-.26.42-.63.63-1.11.63-1.47 0-.3-.12-.63-.37-1.01a.95.95 0 0 1-.19-.56c0-.38.29-.9.87-1.58l.15-.19a147.8 147.8 0 0 1 3.26-3.83l.12-.15c.55-.53.95-1.15 1.2-1.88-2.78-.35-4.35-.56-4.7-.64l.42-1.2a102.5 102.5 0 0 1-4.06-.3l-3.16-.19-.03-.07h.03c1.2-.18 2.4-.4 3.57-.64 1.58-.58 3.27-.9 5.07-.98 1.1-.1 2.18-.32 3.23-.68l1.06-.3a6.5 6.5 0 0 1-.72-.03 10.5 10.5 0 0 1-2.03-.23c0-.02.04-.05.12-.07 1.22-.1 2.43-.25 3.6-.46a56 56 0 0 1 3.08-.4c.28-.2.52-.46.72-.76 1.7-2.5 3.48-4.98 5.33-7.44.68-.9 1.34-1.81 2-2.74.4-.68.83-1.34 1.3-2 .36-.5.75-1.08 1.17-1.76a11.4 11.4 0 0 1 2.67-3.2c.5-.42.96-.86 1.39-1.33.43-.46.69-.97.79-1.52.02-.02.06-.03.11-.03.03 0 .04 0 .04.03 0 1.48-.2 2.96-.6 4.44.42-.38.88-.74 1.35-1.1.85-.5 1.83-.74 2.93-.74 1.4 0 2.1.2 2.1.63l-.03.27c0 .32.15.57.47.73.31.16.73.3 1.26.4l.48.1c.8.2 1.38.38 1.73.53s.57.35.64.6c.05.15.08.36.08.6l-.04.64a99.69 99.69 0 0 1-2.6 17.25 67.33 67.33 0 0 0 3.12-11.54c0-.02.03-.05.08-.07h.11l.04.07c-.15 2.56-.37 5.09-.66 7.6-.29 2.5-.77 5.02-1.44 7.54-.4 1.5-.77 3.06-1.1 4.66a59.82 59.82 0 0 1-1.21 5.3 22.62 22.62 0 0 1-2.09 5.03c-.05.1-.15.18-.3.23h-.45c-.23-.05-.36-.59-.41-1.62-.25.45-.38.92-.38 1.4 0 .22-.26.48-.79.78-.45.2-.74.44-.86.72-.2.42-.43.85-.68 1.27a9.7 9.7 0 0 0-1.05 2.48l-.08.2c-.02.3-.13.6-.32.93-.18.33-.58.68-1.18 1.05Zm.23-29.94c.27 0 .59-.02.94-.06s.62-.25.82-.65c.88-1.76 1.32-3.15 1.32-4.17 0-.33-.03-.65-.08-.98a8.9 8.9 0 0 0-2.4 2.14 8.51 8.51 0 0 1-1.73 1.7l-.15.07c-.08 0-.11-.24-.11-.72 0-.15 0-.24.02-.28s.06-.1.16-.2c.68-.16 1.02-.5 1.02-1.02v-.22c-.58.37-.93.73-1.05 1.08a.95.95 0 0 1-.23.42h-.04c-.2.12-.38.26-.56.41l-.11.08c-.18.17-.27.3-.27.37 0 .05.07.1.2.15h.07c.1 0 .21-.02.34-.05s.26-.06.41-.06c.12.03.19.09.19.19 0 .2-.13.43-.4.7-.26.26-.4.5-.4.73 0 .07.03.17.08.3.5 0 .9 0 1.17.03.27.03.54.04.79.04ZM485.33 55.98a.33.33 0 0 1-.15-.04c-.05-.02-.07-.05-.07-.08v-.03a19.67 19.67 0 0 0 1.31-5.11c.1-.78.24-1.54.42-2.3-.15-.24-.42-.38-.8-.4-.37 0-.98.07-1.83.22a.7.7 0 0 1-.19-.45c0-.18.09-.4.26-.64l.27-.41c.25-.4.37-.66.37-.76a.25.25 0 0 0-.07-.18c-.45-.4-.68-.8-.68-1.17l.06-.41c.03-.23.2-.54.5-.94.15-.25.29-.49.4-.71.11-.23.17-.47.17-.74 0-.26.14-.45.41-.58.28-.12.55-.22.83-.28.27-.06.47-.13.58-.19.11-.06.17-.12.17-.17 0-.05-.04-.1-.11-.15-.33-.32-.5-.62-.5-.9s.08-.56.23-.86c.03-.03.04-.07.04-.12.33.05.51.15.56.3v.34c0 .13.04.22.12.26.07-.67.15-1.18.22-1.54.05-.2.1-.32.17-.37.06-.05.12-.1.17-.17s.1-.16.17-.28l.24-.57.04-.18c.2-1.18.66-2.4 1.4-3.69.84-2.3 1.53-4.29 2.06-5.97.52-1.78.99-3.05 1.39-3.83a28 28 0 0 1 1.05-2.93c.75-1.93 1.88-3.7 3.38-5.34v-.03l.26-.42-.26-1.2c0-.1.06-.15.19-.15.12 0 .2.04.22.11l.12.27c.05.1.08.18.1.26.1-.2.23-.38.37-.53s.33-.22.58-.22.42.06.52.19l.45.79 1.17-1.36c.65-.72 1.25-1.49 1.8-2.29.03-.02.06-.04.12-.04.1 0 .15.04.15.12v.03c-.3.93-.46 1.9-.46 2.9l.04 1.57.5-1.27.1-.08h.12c.05.03.07.05.07.08.2.72.34 1.45.41 2.18.36.2.58.45.68.75.3.8.56 1.6.79 2.4.32 1.15.71 2.28 1.16 3.38l.12.23c.2.22.32.46.37.71.18.28.42.47.72.57.3.1.62.16.95.2s.64.12.89.23c.25.11.37.33.37.66-.02.3-.16.56-.41.78.27.28.45.6.53.94l.03.12-.34.03c-.07 0-.15-.02-.24-.05s-.16-.1-.22-.2-.14-.2-.23-.25-.2-.1-.36-.1c0 .68.18 1.68.53 3 .35 1.34.79 2.68 1.31 4.05s1 2.3 1.43 2.83v-.64c0-.75-.07-1.37-.2-1.87s-.62-.97-1.45-1.4v-.07h-.04c.4-.2.61-.41.64-.64 0-.12-.15-.69-.45-1.69a3.55 3.55 0 0 1-.34-1.54l.04-.45c.3.35.72 1.14 1.26 2.37.53 1.22 1.28 3.17 2.23 5.82l.7-.2a2 2 0 0 0 .5-.2c.1-.06.15-.11.15-.16s-.02-.12-.07-.2c-.28-.34-.41-.65-.41-.93v-.3c.02-.2.13-.49.33-.87.35.06.53.17.53.34l-.04.27v.3c.03.07.12.15.27.22 0-.02 0-.04.03-.04l.64-2.85c-.17.25-.4.51-.67.79.05-.45.45-1.62 1.2-3.5.3-1.5.87-2.93 1.73-4.28a130.2 130.2 0 0 0 2.38-6.35 9.47 9.47 0 0 1 1.03-2.44c1-1.83 2.1-3.6 3.27-5.33a.47.47 0 0 1 .2-.12c.14 0 .22.07.22.2-.43 1.32-.77 2.68-1.02 4.09L526.4 13a8.31 8.31 0 0 0 2.48-3.27c.52-1.8 1.25-3.58 2.18-5.33.02-.05.07-.1.15-.12.05 0 .1.02.15.06.05.04.07.07.07.1v.03a10.19 10.19 0 0 0-.13 3.44 8.16 8.16 0 0 1-.28 3.74 7.86 7.86 0 0 1-1.24 1.95c.27.13.41.81.41 2.07a13.61 13.61 0 0 1-2.74 8.04l-.72 2.63a37.98 37.98 0 0 0 2.71-5.45c.05-.05.14-.08.26-.08.05.03.08.07.08.12l.07.82c.1 1.08.15 1.9.15 2.48-.02.6-.17 1.19-.45 1.75-.27.56-.74 1.36-1.39 2.38l-.3.53a59.7 59.7 0 0 0-2.93 6.09l-.26.52c-.08.2-.16.4-.26.57-.1 1.45-.41 2.87-.92 4.26a43.99 43.99 0 0 1-1.79 4.15 40.67 40.67 0 0 0-2.1 5.11c-.03.1-.13.15-.3.15-.23 0-.34-.07-.34-.22l.04-1.5c0-.53-.02-1.05-.04-1.55a92.98 92.98 0 0 1-2.67 5.22c.03.1.06.21.11.32.05.12.1.25.12.4v.04c0 .07-.08.1-.23.1-.07 0-.13-.04-.17-.12-.04-.09-.08-.15-.13-.17-.07.15-.14.26-.19.34s-.14.1-.26.1c-.08 0-.13-.02-.15-.07-.55-.82-.96-1.65-1.24-2.48l-.11-.1c-.13.17-.23.34-.32.5l-.28.47.03.26v.49c0 .23-.15.34-.45.34l-.22-.04-.06.11a.82.82 0 0 1-.06.1c-.02.03-.1.05-.22.05a.23.23 0 0 1-.13-.04c-.04-.02-.06-.06-.06-.1.1-.18.18-.35.23-.5-.3-1.07-.73-2.26-1.28-3.56a37.65 37.65 0 0 1-1.43-3.99c-2.3-2.3-3.57-4.8-3.8-7.47-.4-.75-.72-1.26-.97-1.52s-.48-.45-.68-.55c-.45-.27-.91-1.01-1.39-2.22l-.56-1.42a13.75 13.75 0 0 1-1.46-3.5l-.3.42c-.4 1.62-.79 3-1.15 4.11a70.45 70.45 0 0 1-1.49 4.04l-.56 1.46a13.72 13.72 0 0 1-1.46 4 54.1 54.1 0 0 1-2.35 3.93 51.09 51.09 0 0 0-2.2 3.64c-.05.06-.15.08-.3.08l-.08-.11c.1-.55.2-1.12.27-1.7h-.08c-.1 0-.15-.03-.15-.1.1-.16.19-.32.27-.5l.03-.03.04-.42c-.35.53-.65 1.04-.9 1.54a33.02 33.02 0 0 1-2.63 4.25 38.77 38.77 0 0 0-2.37 3.83.25.25 0 0 1-.19.08Z"/>
  <path d="M523.17 59.85h-.11c0-.08.01-.12.03-.12 2.5-.6 4.99-1.39 7.44-2.36l-3.6.9-.04-.04.64-.26h-.87a.53.53 0 0 1-.07-.3c-2.18.3-4.4.54-6.65.71-3.8.25-7.1.73-9.88 1.43h-.12c-.1 0-.15-.04-.15-.11 0-.05.23-.17.68-.34A91.26 91.26 0 0 1 520.84 56a.45.45 0 0 0-.3-.22c-.13-.03-.27-.04-.43-.04s-.3-.01-.43-.04a.48.48 0 0 1-.3-.18l2.74-.87a51.6 51.6 0 0 0 7.4-2.66v-.08c.07 0 .12.01.15.04l-.11.04a7.13 7.13 0 0 0 2.78-.76c.47-.2.96-.37 1.46-.52l.04-.23a.44.44 0 0 0-.17-.34c-.11-.1-.28-.2-.5-.3-.23-.1-.4-.2-.5-.3-.1-.1-.15-.18-.15-.26 0-.1.04-.21.12-.34.82.13 1.61.19 2.36.19 2.8 0 5.85-1.06 9.13-3.2 4.51-2.75 7.85-5.93 10.03-9.54.08-.1.15-.22.23-.37 2.45-3.68 4.08-7.19 4.88-10.52.18-.7.27-1.38.27-2.03 0-1.2-.32-2.27-.94-3.2-.73-.97-1.56-1.83-2.5-2.57s-2.15-1.25-3.63-1.56l-.45-.03v-.04h.04c.9 0 1.69.06 2.37.19 2.2.17 4.14.79 5.82 1.84.07-.18.11-.34.11-.49 0-.1-.03-.23-.1-.4-.05-.16-.32-.34-.8-.54l-.15-.04a19.06 19.06 0 0 0-5.6-1.54 12.3 12.3 0 0 0-3.27.08l-.86.07c-1.43.1-2.7.42-3.83.94-.3.15-.58.23-.83.23-.32 0-.74-.14-1.26-.42-.51-.27-1-.4-1.44-.4-.2 0-.42.02-.64.07-.63.15-1.3.25-2.03.3-1.03.17-2 .36-2.93.56-1.7.4-3.4.76-5.11 1.09-2.1.38-4.18.81-6.24 1.31h-.07l-.04-.07a66.79 66.79 0 0 0 4.77-2.33c1.43-.75 2.9-1.48 4.43-2.18.28-.57.79-.98 1.53-1.2.73-.23 1.72-.4 2.95-.53.97-.3 2.04-.57 3.19-.82.57-.1 1.1-.27 1.58-.5a.8.8 0 0 0-.5-.3c-.22 0-.41.01-.57.03-.17.01-.92.17-2.28.47l-.07-.04.04-.04 1.42-.52-.07-.04v-.04c0-.08.04-.14.11-.19.08-.05.34-.11.79-.19.15 0 .29-.01.41-.05l.38-.1c1.6-.57 3.28-1.01 5.03-1.31a16.62 16.62 0 0 1 5.15-.11c3.7.12 7.1.95 10.18 2.48 1.48.7 2.65 1.54 3.53 2.51 1.33 1.5 2.3 2.9 2.9 4.21 0-1.1-.22-2.1-.66-2.97a7.22 7.22 0 0 0-2.46-2.55v-.1s0-.03.03-.05h.12a10.92 10.92 0 0 1 3.87 3.53l.07-.41c.73.62 1.1 1.21 1.1 1.76l-.05.3a3.3 3.3 0 0 0-.07.64c.27.95.41 1.94.41 2.97l-.04 1.05-.1 1.88c0 1.6-.23 3.03-.68 4.28a19.3 19.3 0 0 1-.8 2c-.57 1.25-1 2.55-1.27 3.9-.2 1.1-.7 2.12-1.5 3.06s-1.7 1.85-2.67 2.73c-.3.25-.59.51-.87.78-.55.5-1.11.98-1.69 1.43a14.22 14.22 0 0 0-2.85 2.74c.17.05.32.08.45.08.2 0 .45-.1.75-.3.13-.08.25-.14.36-.19.11-.05.27-.07.47-.07.1.07.15.13.15.18 0 .1-.03.17-.08.2-.12.12-.2.18-.22.18-4.49 3.63-10.42 6.95-17.81 9.96-.05 0-.09 0-.11.03-.28.13-.55.2-.83.25-.27.03-.55.1-.83.17L539 56.62c-1.4.45-2.77.85-4.1 1.2-.3.12-.62.29-.98.49-.25.15-.47.22-.67.22s-.37-.06-.49-.19a61.3 61.3 0 0 1-9.58 1.5Zm8.6-14.17 1.96-2.1c.1-.13.18-.26.26-.41.15-.43.42-.64.83-.64l.4.04c.43.12.66.3.68.56v.19c0 .22-.06.45-.18.67l-.08.08c-.05.05-.07.15-.07.3 0 .22.26.47.79.75 2.25-4.18 4.58-8.3 6.98-12.36l1.62-2.7c.68-1.23 1.08-1.85 1.2-1.85.03 0 .04.03.04.08 0 .13-.09.45-.26.98l-.3 1.16c-.13.48-.32.94-.57 1.4-.45.8-.67 1.5-.67 2.1 0 .35.06.7.18 1.05l.83-1.7c.53-1.12 1.06-2.2 1.61-3.22.3-.56.58-1.1.83-1.66h.19c.35-.77.7-1.59 1.05-2.44l1.02-1.88c.55-.98.82-1.65.82-2.03 0-.2-.05-.44-.17-.73-.1-.29-.4-.78-.84-1.48l-.04-.15v-.12c0-.22-.11-.38-.34-.49-.57.16-.99.5-1.24 1.06-.25.55-.64.91-1.16 1.09-.3-.18-.45-.4-.45-.68l.07-.53a1 1 0 0 0-.05-.31c-.04-.12-.21-.25-.51-.4-.63.33-1.4.65-2.3.96-.9.31-1.75.67-2.55 1.07-.8.4-1.33.9-1.58 1.5-.1.23-.33.39-.7.49-.18.05-.4.08-.65.08a4.8 4.8 0 0 1-.79-.08l.34-.53c.23-.35.43-.71.6-1.09.13-.27.19-.56.19-.86l-.04-.3c-.5.38-.86.75-1.09 1.13-.3.52-.7 1.64-1.2 3.34-.3 1.1-.68 2.23-1.13 3.38a29.46 29.46 0 0 0-1.95 8.15l-.19.3a10.46 10.46 0 0 0-1.76 5.83c0 .97.12 1.98.37 3Z"/>
</svg>
